<svg id="Layer_1" data-name="Layer 1" xmlns="http://www.w3.org/2000/svg" viewBox="0 0 24 24">
  <defs>
    <style>
      .cls-1 {
        fill: #3c7f24;
      }

      .cls-2 {
        fill: #fff;
      }
    </style>
  </defs>
  <rect class="cls-1" x="3.51" y="3.51" width="16.97" height="16.97" transform="translate(-4.97 12) rotate(-45)"/>
  <g>
    <path class="cls-2" d="M11.22,8.12v1H8.61v7.31H7.44V9.13H4.83v-1Z"/>
    <path class="cls-2" d="M18.6,8.12c-.24.28-.52.58-.84.91l-1,1-1,1-.95.93a11,11,0,0,1,1.1.89c.38.35.76.73,1.12,1.13s.72.8,1,1.22a9,9,0,0,1,.81,1.19H17.52a12.89,12.89,0,0,0-.82-1.14c-.32-.37-.65-.74-1-1.09s-.7-.67-1.06-1a9.08,9.08,0,0,0-1-.76v4H12.45V8.12h1.16v3.67l.93-.89,1-1,.93-1c.29-.31.54-.58.74-.81Z"/>
  </g>
</svg>
